<svg width="10" height="10" xmlns="http://www.w3.org/2000/svg">

 <g>
  <title>background</title>
  <rect fill="none" id="canvas_background" height="12" width="12" y="-1" x="-1"/>
 </g>
 <g>
  <title>Layer 1</title>
  <path stroke="null" id="svg_1" d="m4.968607,1.876632c0.423757,-1.004375 1.391803,-1.706156 2.517761,-1.706156c1.516747,0 2.609106,1.297519 2.746439,2.843874c0,0 0.074126,0.383859 -0.089035,1.074931c-0.222168,0.941168 -0.744409,1.777342 -1.4485,2.415497l-3.726665,3.324957l-3.663878,-3.325167c-0.704091,-0.637945 -1.226333,-1.474329 -1.4485,-2.415497c-0.163161,-0.691072 -0.089035,-1.074931 -0.089035,-1.074931c0.137332,-1.546355 1.229692,-2.843874 2.746439,-2.843874c1.126168,0 2.031218,0.701991 2.454975,1.706366z"/>
  <g id="svg_2"/>
  <g id="svg_3"/>
  <g id="svg_4"/>
  <g id="svg_5"/>
  <g id="svg_6"/>
  <g id="svg_7"/>
  <g id="svg_8"/>
  <g id="svg_9"/>
  <g id="svg_10"/>
  <g id="svg_11"/>
  <g id="svg_12"/>
  <g id="svg_13"/>
  <g id="svg_14"/>
  <g id="svg_15"/>
  <g id="svg_16"/>
 </g>
</svg>